<?xml version="1.0" encoding="UTF-8" standalone="no"?>
<svg
   xmlns:dc="http://purl.org/dc/elements/1.1/"
   xmlns:cc="http://creativecommons.org/ns#"
   xmlns:rdf="http://www.w3.org/1999/02/22-rdf-syntax-ns#"
   xmlns:svg="http://www.w3.org/2000/svg"
   xmlns="http://www.w3.org/2000/svg"
   xmlns:sodipodi="http://sodipodi.sourceforge.net/DTD/sodipodi-0.dtd"
   xmlns:inkscape="http://www.inkscape.org/namespaces/inkscape"
   width="420"
   height="420"
   viewBox="0 0 111.125 111.12501"
   version="1.1"
   id="svg8"
   inkscape:version="1.0.2-2 (e86c870879, 2021-01-15)"
   sodipodi:docname="Katakana letter Tu.svg">
  <defs
     id="defs2" />
  <sodipodi:namedview
     id="base"
     pagecolor="#ffffff"
     bordercolor="#666666"
     borderopacity="1.0"
     inkscape:pageopacity="0.0"
     inkscape:pageshadow="2"
     inkscape:zoom="0.98994949"
     inkscape:cx="345.76714"
     inkscape:cy="230.41447"
     inkscape:document-units="px"
     inkscape:current-layer="layer1"
     showgrid="false"
     units="px"
     showguides="true"
     inkscape:guide-bbox="true"
     inkscape:snap-center="true"
     inkscape:snap-object-midpoints="false"
     inkscape:window-width="1280"
     inkscape:window-height="657"
     inkscape:window-x="-8"
     inkscape:window-y="-8"
     inkscape:window-maximized="1"
     inkscape:document-rotation="0"
     inkscape:snap-bbox="true"
     inkscape:bbox-paths="true"
     inkscape:bbox-nodes="true" />
  <metadata
     id="metadata5">
    <rdf:RDF>
      <cc:Work
         rdf:about="">
        <dc:format>image/svg+xml</dc:format>
        <dc:type
           rdf:resource="http://purl.org/dc/dcmitype/StillImage" />
        <dc:title />
      </cc:Work>
    </rdf:RDF>
  </metadata>
  <style>
    .path {
      fill: black;
    }
    @media (prefers-color-scheme: dark) {
      .path {
        fill: white;
      }
    }
  </style>
  <g
     inkscape:label="Layer 1"
     inkscape:groupmode="layer"
     id="layer1"
     transform="translate(0,-185.87499)">
    <path
       class="path"
       d="m 48.78919,222.33464 c 3.386656,6.77331 3.598322,12.1708 7.196644,12.1708 2.11666,0 3.704155,-1.27 3.704155,-4.02166 0,-4.33915 -2.539992,-8.78414 -6.244147,-12.48829 -2.963324,-3.17499 -6.138314,-5.71498 -10.054135,-8.04331 l -1.904994,1.37583 c 2.963324,3.59832 5.397483,7.30248 7.302477,11.00663 z m 41.063204,3.70416 c 1.481662,-3.38666 4.444986,-3.59832 4.444986,-6.13832 0,-2.96332 -5.714982,-8.25497 -10.477467,-9.20747 -2.328326,-0.52916 -5.079984,-0.52916 -6.984978,-0.42333 l -0.740831,2.22249 c 5.926648,2.11666 7.831642,3.59833 7.831642,5.60915 0,7.19665 -18.732441,45.08486 -56.514822,65.0873 l 1.587495,2.43416 c 33.125729,-13.86413 50.79984,-37.88822 60.853975,-59.58398 z m -65.510627,3.80999 c 3.915821,7.51414 4.127487,12.48829 7.937475,12.48829 2.434159,0 3.598322,-1.79916 3.492489,-4.23332 -0.105833,-3.70416 -2.539992,-8.46664 -7.514143,-13.33496 -2.328326,-2.53999 -5.926648,-5.82081 -9.52497,-7.83164 l -1.904994,1.58749 c 2.751658,3.28083 5.29165,6.98498 7.514143,11.32414 z"
       style="font-style:normal;font-variant:normal;font-weight:normal;font-stretch:normal;font-size:105.833px;line-height:100%;font-family:'Noto Serif CJK JP';-inkscape-font-specification:'Noto Serif CJK JP';text-align:center;letter-spacing:0px;word-spacing:0px;text-anchor:middle;fill-opacity:1;stroke:none;stroke-width:0.264583px;stroke-linecap:butt;stroke-linejoin:miter;stroke-opacity:1"
       id="path9" />
  </g>
</svg>
